<svg id="Layer_1" data-name="Layer 1" xmlns="http://www.w3.org/2000/svg" xmlns:xlink="http://www.w3.org/1999/xlink" viewBox="0 0 369.61 467.98"><defs><style>.cls-1{fill:url(#linear-gradient);}</style><linearGradient id="linear-gradient" x1="295.84" y1="656.25" x2="295.84" y2="188.27" gradientUnits="userSpaceOnUse"><stop offset="0" stop-color="#f75d3b"/><stop offset="1" stop-color="#db1407"/></linearGradient></defs><path class="cls-1" d="M358.24,544.1C368.14,536,373,525,375.57,512.92c3-14.06,2.88-27.82-5-40.52-2.63-4.24-5.8-8.09-10.52-10.72-1.48,3.35-1.79,7-3.91,9.82-1.82,2.45-3.73,5-7.15,4.68-3.17-.34-4.56-3.08-5.86-5.64-2.9-5.71-1.88-11.94-2.12-17.94-1.06-27.63-23-51-51-54-5.62-.6-11.24-1.26-17.13.39,1.9,6.64,3.71,13.22,5.67,19.75,5.7,19,.22,37-15.12,49.22-.91.72-1.76,1.54-2.74,2.17-19.81,12.71-23.89,32-22.3,53.57.28,3.8.89,7.58,1,11.82-7.61-13.86-17.93-24.23-35.12-28.16,16.38,20.81,14.63,41.14,2.55,62.38-4.48-6.07-4.45-12.9-6.4-19.88-8,10.57-12,21.81-12,34.27,0,27.86,12.93,49.69,32.52,68.29,1.08,1,2.23,2,4.4,3.86a107.44,107.44,0,0,1-25.87-10c-48.48-26.22-77.85-66.58-87-120.87-4.4-26.08,1.52-50.64,16.39-72.77,1.09-1.62,2-3.49,4.2-4.76,1.1,6,1.94,11.92,3.31,17.68,1.33,5.59,2.68,11.27,6.7,16.63,4.38-6.63,7.12-13.46,9.83-20.33,12.46-31.51,6.43-60-14.22-86l-.15.07c2.05-1.06,3.88.08,5.75.62,24.12,7,41.14,22.45,52.64,44.43a16,16,0,0,0,2.81,4.21c-.77-5.77-1.71-11.53-2.26-17.32-1.53-16.18-1-32.25,2.73-48.15a70.92,70.92,0,0,1,25.44-40.13c4.55-3.64,9-7.34,13.72-10.83,22-16.45,31.27-38.6,29.66-65.68-1-16.31-5.52-31.74-11.52-46.81-.79-2-1.61-4-2.38-5.89a4,4,0,0,1,3.24-1.4C300,184.75,339.63,201.05,361,238.5c10.15,17.79,14.3,37.09,13.24,57.57a34.64,34.64,0,0,0,4.52,19.68c4.88,8.34,11.07,9,17.57,1.75,4.12-4.58,6.33-10.1,7.55-16.07.33-1.6.13-3.36,1.65-4.91a59.61,59.61,0,0,1,16.22,15.91c16.71,23.93,16.25,50.14,9.95,77.07a101,101,0,0,1-27.34,49.44c-.33.4-1.28.67-.76,1.27s1.1.11,1.36-.58c17.65-4.39,37.1-26.79,40-46.05.14-1,.31-1.92.54-3.32,2.65.94,3.66,3.12,4.94,4.87,31.48,43.18,37.51,90.6,22,140.88-15.87,51.47-50.63,86.54-98.55,109.45-1.14.54-2.29,1.5-4.14.64,18.45-16.78,29.59-37.48,32.95-62,3.4-24.91-2.57-47.48-18.06-67.22-1.94.17-1.59,1.43-1.79,2.3-2.63,11.66-10.5,18.94-20.44,24.5-1.35.76-2.71,1.32-4.22.42Z" transform="translate(-111.03 -188.27)"/></svg>