<svg id="Layer_1" data-name="Layer 1" xmlns="http://www.w3.org/2000/svg" viewBox="0 0 416.15 97.07"><defs><style>.cls-1{fill:#2c2c2c;}</style></defs><path class="cls-1" d="M333.43,463.15H322.05c-1.86-2.51-1-5.32-1-8,0-10.79.5-21.59.2-32.38-.26-9.29-3-12.56-9-12.54s-12.81,7-12.91,13.8c-.17,10.8,0,21.6.09,32.4,0,2.13,0,4.27,0,6.63H287.23c-1.72-3.53-.6-7.29-.64-10.91-.1-10,.3-20,0-30-.23-8.46-3.35-12.15-9.05-11.9-6.49.29-13.16,6.89-13.2,13.39-.07,11,.09,22,.09,33,0,2.12.49,4.33-.83,6.48h-11.4c-1.07-20.11,1.53-40.19-2.77-60.59l12.63-3c.71,3.06,1.35,5.78,2,8.66,18-14.88,26.66-14.6,34.08.6,2.61-2.34,5.21-4.84,8-7.12,5.64-4.62,12-5.87,18.73-2.93,6.15,2.69,8.32,8.35,8.42,14.44C333.61,429.74,333.43,446.36,333.43,463.15Z" transform="translate(-89.66 -367.8)"/><path class="cls-1" d="M362.12,455.16c-.37,3-.65,5.29-1,7.85H348.66q1.54-45.79-.74-92.15L362,367.8v39.25c5.15-7.32,11.52-10.86,19.8-9.67,6.85,1,11.82,5,15.47,10.7a29.32,29.32,0,0,1,2.28,4.1,45.39,45.39,0,0,1,1,34.94C394.94,462.3,377.94,473.2,362.12,455.16Zm-.59-25.52c-.06,6.91,1.37,11.83,4.32,15.89,5.88,8.11,15.23,8,20.92-.2,6-8.62,5.43-22.23-1.18-30.19-5.37-6.46-13.19-6.63-18.65-.25A22.24,22.24,0,0,0,361.53,429.64Z" transform="translate(-89.66 -367.8)"/><path class="cls-1" d="M142.16,383.13c-10,0-19.55-.06-29.08,0s-8.74-1.67-8.79,8.76c0,5.45,0,10.9,0,16.43,6.26,1.78,11.86-.13,17.45,0,5.43.15,10.87-1.23,16.57,0v13.75c-6.49,2-13.07-.23-19.62-.1-14.34.28-14.32.09-14.25,14.14,0,8.81,0,17.63,0,26.83H89.87c1-30.58,1.27-61.28-.21-92.87a395.44,395.44,0,0,0,51.08-1.27C141.26,374.14,141.74,378.88,142.16,383.13Z" transform="translate(-89.66 -367.8)"/><path class="cls-1" d="M224.51,408l1.89-7.93c3.6-1,6.65.49,10.68,1.52-3.37,20-1.77,40.1-.85,60.23-3.77,1.39-7.25,1.35-10.59,1.46-2.19-2.55-1.2-5.79-2.73-8.86-2.2,2-4.12,3.8-6.17,5.49-7.8,6.4-17.06,6.14-24.53-.63-14.35-13-15-42.13-1.21-55.71C200.81,393.9,214,395.4,224.51,408ZM193.7,431.82A22.58,22.58,0,0,0,198.4,446c5.72,7.4,14.09,7.46,19.86.15,6.42-8.12,6.31-22.67-.22-30.85-5.21-6.51-13.31-6.8-18.77-.53C195.22,419.4,193.68,425,193.7,431.82Z" transform="translate(-89.66 -367.8)"/><path class="cls-1" d="M425,437.58c.71,6.71,4.29,10.88,10,13,8.88,3.24,15.32-2,21.65-7.07,6.2,10.06,6,10.89-3.92,17.5-12.15,8.1-29.42,3.09-36.19-10.34-6.29-12.48-6-25.44-.08-38,5.22-11.08,14.22-16.48,24.1-15.32,9.24,1.09,17.85,10.11,20.21,21.24a45.81,45.81,0,0,1,.83,5.82c.6,7.41-1.05,9.53-8.47,10.36C443.87,435.77,434.58,436.62,425,437.58Zm0-11.42c1.4,1,3,.71,4.53.54,5-.54,10-1.47,15-1.91,4.56-.4,4.3-3,3.21-6.09-2-5.58-7.82-9.37-12.63-8.27C429.92,411.62,423.4,419.15,425,426.16Z" transform="translate(-89.66 -367.8)"/><path class="cls-1" d="M167.84,463.17H155.49V370.59h13C166.75,401.11,167.21,431.81,167.84,463.17Z" transform="translate(-89.66 -367.8)"/><path class="cls-1" d="M504.51,415.39c-16.21-.41-17.28.67-17.29,16.76q0,14.43-.09,28.88a13.21,13.21,0,0,1-.36,2H475.12c-1-20.76,1.95-41.79-2.83-62.94l11.95-2.67c2.29,2.64.78,5.89,2.15,9,5.65-3.71,10.91-8.75,18.85-6.14C506.34,405.18,505.7,410.13,504.51,415.39Z" transform="translate(-89.66 -367.8)"/></svg>