<svg id="Layer_1" data-name="Layer 1" xmlns="http://www.w3.org/2000/svg" xmlns:xlink="http://www.w3.org/1999/xlink" viewBox="0 0 595.28 841.89"><defs><style>.cls-1{fill:url(#linear-gradient);}</style><linearGradient id="linear-gradient" x1="293.17" y1="620.5" x2="293.17" y2="308" gradientUnits="userSpaceOnUse"><stop offset="0" stop-color="#f75d3b"/><stop offset="1" stop-color="#db1407"/></linearGradient></defs><path class="cls-1" d="M293.16,308A108.57,108.57,0,0,0,184.72,416.45c0,57.56,98.39,192,102.58,197.73l3.91,5.32a2.42,2.42,0,0,0,3.92,0l3.9-5.32c4.2-5.69,102.58-140.17,102.58-197.73A108.57,108.57,0,0,0,293.16,308ZM254.48,504.43c-25.65-18.76-28.07-51.94-17.08-78.68-.26,5,.22,9.53,2.42,13.69a10.73,10.73,0,0,0,1.08,1.94c1.94,2.28,4,5.14,7.3,4.19s3.44-4.37,3.51-7.47c.09-4-1.05-7.64-2-11.38-3.47-13.49-3.3-26.58,4-39a39.39,39.39,0,0,1,7.15-8.75c-2.78,10.24-2.43,19.3,3,28.59,2.6-9.31,8.18-16,13.84-22.51,8.24-9.54,10.37-20.87,10.62-33,.23-11,2.25-21.71,8.21-31.31a4.84,4.84,0,0,1,2.33-2.27c-.61,4.54-1.33,8.82-1,13.21a84.64,84.64,0,0,0,4.29,20.74c5.76,16.92,2.19,32.33-6.84,47-4.7,7.62-10.55,14.53-14.19,22.82-6.63,15.1-10.2,30.63-7.07,47.2,3.81,20.12,16.36,32.3,35.19,38.75a63.45,63.45,0,0,0,13.45,3.29C312.93,520.29,279.17,522.5,254.48,504.43Zm102-75.61c-7,10.44-9.28,22.07-9.05,34.4.09,4.73.53,9.45-.29,14.19-1.82,10.58-7.91,17.1-18.37,19.51-14.66,3.37-25.72-2.68-34.09-13.94-12.47-16.77-12.24-35-3.78-53.28,4.9-10.59,11.47-20.37,15.69-31.34,3.13-8.16,5.83-16.39,5.88-26,9.07,14,11.82,30.08,9.09,51.3,4.88-4,8.07-16.41,6.89-26.7,7.93,7.41,11.1,27.72,7.95,49.73,4.12-6.52,7.93-13.28,13.3-18.89s11.7-10.31,19.86-11.66C364.67,419.82,360,423.65,356.51,428.82Z"/></svg>