<svg id="Layer_1" data-name="Layer 1" xmlns="http://www.w3.org/2000/svg" xmlns:xlink="http://www.w3.org/1999/xlink" viewBox="0 0 951.21 632.16"><defs><style>.cls-1{fill:#f0f0f0;}.cls-2{fill:#fff;}.cls-3{fill:#3f3d56;}.cls-4{fill:#e5e5e5;}.cls-5{fill:#9e616a;}.cls-6{fill:#2f2e41;}.cls-7{fill:#2c2c2c;}.cls-8{isolation:isolate;opacity:0.2;}.cls-9{fill:url(#Flamber);}.cls-10{fill:url(#Flamber-2);}.cls-11{fill:url(#Flamber-3);}.cls-12{fill:url(#Flamber-4);}.cls-13{fill:url(#Flamber-5);}.cls-14{fill:url(#Flamber-6);}.cls-15{fill:url(#Flamber-7);}.cls-16{fill:url(#Flamber-8);}</style><linearGradient id="Flamber" x1="498.1" y1="137.11" x2="582.7" y2="137.11" gradientUnits="userSpaceOnUse"><stop offset="0" stop-color="#ff5e3b"/><stop offset="1" stop-color="#db0000"/></linearGradient><linearGradient id="Flamber-2" x1="600.48" y1="137.76" x2="685.11" y2="137.76" xlink:href="#Flamber"/><linearGradient id="Flamber-3" x1="702.89" y1="138.4" x2="787.49" y2="138.4" xlink:href="#Flamber"/><linearGradient id="Flamber-4" x1="805.27" y1="139.05" x2="889.84" y2="139.05" xlink:href="#Flamber"/><linearGradient id="Flamber-5" x1="525.24" y1="106.16" x2="555.24" y2="106.16" xlink:href="#Flamber"/><linearGradient id="Flamber-6" x1="628.24" y1="106.16" x2="658.24" y2="106.16" xlink:href="#Flamber"/><linearGradient id="Flamber-7" x1="731.24" y1="106.16" x2="761.24" y2="106.16" xlink:href="#Flamber"/><linearGradient id="Flamber-8" x1="834.24" y1="106.16" x2="864.24" y2="106.16" xlink:href="#Flamber"/></defs><path class="cls-1" d="M341.21,363.82c32.6-57.35,94.78-101.38,160.61-97.14a303.88,303.88,0,0,0-79.93,192.74c-1.09,27.65.59,58.51-17.76,79.21-11.42,12.88-28.88,19.11-46,20.42s-34.33-1.79-51.26-4.88l-4.11,1.26C301.16,489.49,308.61,421.16,341.21,363.82Z" transform="translate(0 0)"/><path class="cls-2" d="M501.91,268.06c-48.67,23.43-90.18,62.57-115.66,110.3-5.51,10.32-10.2,21.27-12.24,32.84s-.62,22.6,3.33,33.6c3.62,10.06,8.48,19.92,9.59,30.68,1.17,11.34-3,21.95-10.51,30.36-9.19,10.3-21.53,16.68-33.82,22.5-13.64,6.46-27.91,13-37.57,25-1.17,1.46-3.37-.44-2.2-1.9,16.81-21,45.58-24.93,65.53-41.83,9.31-7.89,16.3-18.63,15.86-31.22-.38-11-5.39-21.18-9.14-31.33-3.94-10.66-5.9-21.37-4.49-32.73,1.45-11.63,5.72-22.78,10.94-33.19,11.77-23.49,27.89-45.05,46.34-63.7A264.63,264.63,0,0,1,501,265.31c1.68-.81,2.62,1.95.94,2.75Z" transform="translate(0 0)"/><path class="cls-2" d="M393.71,362.41A39,39,0,0,1,382,313.33c.86-1.66,3.48-.42,2.63,1.25a36.09,36.09,0,0,0,11,45.63C397.13,361.31,395.22,363.5,393.71,362.41Z" transform="translate(0 0)"/><path class="cls-2" d="M374.84,440a75.18,75.18,0,0,0,47.56-27.11c1.18-1.46,3.38.44,2.2,1.9a78.13,78.13,0,0,1-49.55,28.11c-1.85.26-2.06-2.64-.21-2.9Z" transform="translate(0 0)"/><path class="cls-2" d="M450.52,299.62a22.09,22.09,0,0,0,19.72,7c1.85-.29,2.05,2.61.22,2.89a24.7,24.7,0,0,1-21.83-7.72,1.51,1.51,0,0,1-.16-2.05,1.46,1.46,0,0,1,2-.15Z" transform="translate(0 0)"/><path class="cls-1" d="M632.79,447.58c-1.15.22-2.3.43-3.46.67A289.51,289.51,0,0,0,583.9,460.8c-1.15.4-2.3.82-3.44,1.26a306.24,306.24,0,0,0-96.33,58.62,298.39,298.39,0,0,0-31.2,32.69c-13.19,16.13-26.22,34.66-43.46,45.17a50.49,50.49,0,0,1-5.56,3l-99.33-41.2c-.18-.21-.37-.4-.55-.6l-4-1.47c.45-.63.93-1.28,1.38-1.92.26-.37.54-.73.8-1.1s.36-.49.51-.72l.17-.22c.15-.23.31-.43.45-.64q4-5.46,8.13-10.89s0,0,.05,0c20.95-27.51,44.38-53.52,71-75.15.8-.65,1.61-1.32,2.46-2a284.06,284.06,0,0,1,38.36-25.95,251.77,251.77,0,0,1,22.76-11.26,209,209,0,0,1,63.22-16.12c43.43-4,87.67,5.87,121,33.15C631.12,446.17,632,446.86,632.79,447.58Z" transform="translate(0 0)"/><path class="cls-2" d="M632,448.75c-53-10.6-109.67-4.34-158.75,18.43-10.62,4.92-21,10.84-29.55,18.85s-14.1,17.68-17.57,28.84c-3.17,10.21-5.22,21-10.81,30.27-5.9,9.76-15.61,15.71-26.68,17.91-13.54,2.69-27.23.35-40.54-2.4-14.79-3-30.09-6.46-45.07-2.64-1.81.46-2.42-2.39-.61-2.85,26.05-6.63,51.4,7.54,77.51,6.06,12.18-.69,24.23-5.06,31.46-15.37,6.31-9,8.45-20.16,11.56-30.52,3.28-10.88,8.16-20.62,16.13-28.84,8.15-8.41,18.27-14.75,28.71-19.92,23.54-11.66,49.39-19.18,75.35-22.95A264.59,264.59,0,0,1,633,446c1.83.36.91,3.12-.91,2.76Z" transform="translate(0 0)"/><path class="cls-2" d="M488.85,458.94A39,39,0,0,1,509,412.67c1.68-.81,3,1.76,1.34,2.58a36.1,36.1,0,0,0-18.66,43.08c.55,1.78-2.29,2.39-2.84.61Z" transform="translate(0 0)"/><path class="cls-2" d="M427.1,509.48a75,75,0,0,0,54.29,7c1.82-.45,2.43,2.39.61,2.85a78.16,78.16,0,0,1-56.48-7.39C423.88,511,425.46,508.58,427.1,509.48Z" transform="translate(0 0)"/><path class="cls-2" d="M572,443a22.07,22.07,0,0,0,11.52,17.48c1.65.88.06,3.32-1.58,2.44a24.72,24.72,0,0,1-12.78-19.31,1.51,1.51,0,0,1,1.12-1.73A1.46,1.46,0,0,1,572,443Z" transform="translate(0 0)"/><path class="cls-3" d="M443.56,515.56c-13.91-67.27-31.3-89.69-31.3-89.69l-6.65-5.15-8-6.21,0-.8-1.89-.64-.45-.35-.73-.56-.11.13-.25.25-36.15-12.28-45.87-15.58L291,357.07a36.73,36.73,0,0,0-29.38-14.33l-67.83.5a36.73,36.73,0,0,0-24.71,9.8l-44.59,41.35L55,427.57l-.11-.12-.73.53-10.74,5.13.45,2.3-6.65,4.8s-17.39,20.87-31.3,83.46C2.37,539.59.63,573.76,0,615.85a16.07,16.07,0,0,0,15.83,16.31H433.42a16.07,16.07,0,0,0,16.07-16.08v-.21C448.87,570.06,447.13,532.83,443.56,515.56Z" transform="translate(0 0)"/><path class="cls-4" d="M491.17,58.66a54.43,54.43,0,1,0-.05,108.86H896.8a54.43,54.43,0,0,0,0-108.86Z" transform="translate(0 0)"/><path class="cls-2" d="M491.17,69.68a43.42,43.42,0,1,0,0,86.83H896.8a43.42,43.42,0,1,0,0-86.83Z" transform="translate(0 0)"/><circle id="e096411a-cdc3-4e6d-bbd4-4630e1fee17e" class="cls-5" cx="238.32" cy="228.39" r="88.86"/><path class="cls-6" d="M215.59,312.9l-1.14-2.51c.15,0,.29,0,.44,0Z" transform="translate(0 0)"/><path class="cls-7" d="M147,143.57c4.49-3.59,9.75-6.88,15.49-6.7s11.58,5.38,10.39,11a91.31,91.31,0,0,1,109.89-41.21c14.28,5,28.29,15.12,31.57,29.91.84,3.79,1,8,3.39,11,3,3.88,8.71,4.76,13.41,3.39l.14,0a4.21,4.21,0,0,1,5.08,5.93l-4,7.54a32.43,32.43,0,0,0,15.42-.33,4.19,4.19,0,0,1,4.46,6.53c-13.33,18.29-35.59,30.1-58.3,30-16.15-.09-32.46-5.66-48.18-2A41.86,41.86,0,0,0,214.61,249a42.34,42.34,0,0,0,3,8.4c-4.83-5.29-14.16-4-19.1,1.14s-6.21,12.91-5.72,20c.77,10.92,5,21.2,9.55,31.22-37.8-1.19-73.55-27.71-85.59-63.58S117.29,167.26,147,143.57Z" transform="translate(0 0)"/><polygon class="cls-8" points="87.46 495.25 112.39 630.86 127.34 632.16 87.46 495.25"/><polygon class="cls-8" points="362.01 485.03 337.08 630.76 322.13 632.16 362.01 485.03"/><path class="cls-7" d="M168.25,97.93c-4.78,2-9.77-.19-11.86-5.2s-.14-10.24,4.72-12.27,9.75.16,11.91,5.33S173.18,95.87,168.25,97.93Zm-9.16-27.48L155.29,72a4.1,4.1,0,0,1-5.2-1.91l-.19-.37c-4.09-7.37-4.56-16.34-1.38-26.62,2.93-9.23,4.15-15.72,1.7-21.6-2.84-6.79-8.9-8.92-16.63-5.84-3,1.25-4,1.23-6.31,3.57a5.44,5.44,0,0,1-3.92,1.6,5.25,5.25,0,0,1-3.75-1.65,5.33,5.33,0,0,1,0-7.29,41.33,41.33,0,0,1,14-9.65c16.61-6.93,25,3.3,28.79,12.47,3.75,9,1.64,17.27-1.74,28-2.84,9-2.67,15.58.55,22.17a4.08,4.08,0,0,1-2,5.42l-.16.07Z" transform="translate(0 0)"/><path class="cls-9" d="M580.77,139.05H500.06a1.95,1.95,0,0,1,0-3.89h80.74a1.95,1.95,0,0,1,0,3.89Z" transform="translate(0 0)"/><path class="cls-10" d="M683.15,139.7H602.44a1.95,1.95,0,0,1,0-3.89h80.74a1.95,1.95,0,1,1,0,3.89Z" transform="translate(0 0)"/><path class="cls-11" d="M785.53,140.35H704.82a1.95,1.95,0,0,1,0-3.89h80.71a1.95,1.95,0,1,1,0,3.89Z" transform="translate(0 0)"/><path class="cls-12" d="M887.91,141H807.2a1.95,1.95,0,0,1,0-3.89h80.71a1.95,1.95,0,0,1,0,3.89Z" transform="translate(0 0)"/><circle class="cls-13" cx="540.24" cy="106.16" r="15"/><circle class="cls-14" cx="643.24" cy="106.16" r="15"/><circle class="cls-15" cx="746.24" cy="106.16" r="15"/><circle class="cls-16" cx="849.24" cy="106.16" r="15"/></svg>