<svg id="Layer_1" data-name="Layer 1" xmlns="http://www.w3.org/2000/svg" xmlns:xlink="http://www.w3.org/1999/xlink" viewBox="0 0 493.45 480.85"><defs><style>.cls-1{fill:#f2f2f2;}.cls-2{fill:#a0616a;}.cls-3{fill:#2c2c2c;}.cls-4{fill:#fff;}.cls-5{fill:#2f2e41;}.cls-6{fill:#ccc;}.cls-7{fill:url(#Flamber);}.cls-8{fill:url(#Flamber-2);}</style><linearGradient id="Flamber" x1="80.15" y1="301.38" x2="302.15" y2="301.38" gradientUnits="userSpaceOnUse"><stop offset="0" stop-color="#ff5e3b"/><stop offset="1" stop-color="#db0000"/></linearGradient><linearGradient id="Flamber-2" x1="208.98" y1="349.11" x2="301.2" y2="349.11" xlink:href="#Flamber"/></defs><path class="cls-1" d="M314.74,107.79H288.48V331.64a26.74,26.74,0,0,1-26.74,26.74H61v.26a26.74,26.74,0,0,0,26.74,26.74h227a26.74,26.74,0,0,0,26.74-26.74h0V134.53A26.74,26.74,0,0,0,314.74,107.79Z" transform="translate(0 0)"/><path class="cls-1" d="M439.2,463.52a2.28,2.28,0,0,0,1.65-3.94l-.16-.62.06-.14a6.09,6.09,0,0,1,11.24,0c1.84,4.43,4.18,8.86,4.76,13.54a18,18,0,0,1-.32,6.2,72.32,72.32,0,0,0,6.58-30,69.68,69.68,0,0,0-.43-7.78q-.36-3.18-1-6.31a73,73,0,0,0-14.5-31,19.47,19.47,0,0,1-8.09-8.4,14.85,14.85,0,0,1-1.35-4.05c.39.05,1.48-5.95,1.19-6.32.55-.83,1.53-1.25,2.13-2.06,3-4,7.09-3.34,9.23,2.16,4.59,2.31,4.63,6.15,1.82,9.83-1.79,2.35-2,5.53-3.6,8,.16.21.33.41.49.61a74,74,0,0,1,7.68,12.17,30.6,30.6,0,0,1,1.82-14.21c1.75-4.22,5-7.77,7.91-11.41a6.28,6.28,0,0,1,11.19,3.08.88.88,0,0,0,0,.16c-.43.24-.85.5-1.26.77a3.08,3.08,0,0,0,1.24,5.6h.06a29.47,29.47,0,0,1-.81,4.58c3.71,14.32-4.29,19.53-15.7,19.77l-.75.38a75,75,0,0,1,4.05,19,71.35,71.35,0,0,1-.06,11.51l0-.14a18.88,18.88,0,0,1,6.43-10.87c4.95-4.06,11.93-5.56,17.27-8.82a3.53,3.53,0,0,1,5.41,3.43l0,.15a19.74,19.74,0,0,0-2.32,1.11c-.43.25-.85.5-1.26.77a3.09,3.09,0,0,0,1.24,5.61h.06l.13,0a30.61,30.61,0,0,1-5.63,8.82c-2.32,12.5-12.26,13.69-22.9,10.05h0a75.06,75.06,0,0,1-5.05,14.72h-18l-.18-.6a20.84,20.84,0,0,0,5-.3l-4-4.93-.09-.1c-.67-.84-1.36-1.67-2-2.51h0a30.17,30.17,0,0,1,.88-7.64Z" transform="translate(0 0)"/><path class="cls-2" d="M240.72,77.34a8.26,8.26,0,0,0,12.47,1.53l37.47,16.9,7.22-9.22L253.23,66.8a8.24,8.24,0,0,0-12.51,10.54Z" transform="translate(0 0)"/><path class="cls-3" d="M401.51,87.88l3.71,21.06a7.14,7.14,0,0,1-5.8,8.28c-.22,0-.45.07-.68.09l-63.14,5L261.38,89.06l8.87-16.83,64.42,20.41Z" transform="translate(0 0)"/><rect class="cls-1" y="72.79" width="280.48" height="277.59" rx="26.74"/><path class="cls-4" d="M26.74,78.29A21.24,21.24,0,0,0,5.5,99.53h0V323.64a21.24,21.24,0,0,0,21.24,21.24H171.62A103.37,103.37,0,0,0,275,241.52h0v-142a21.24,21.24,0,0,0-21.24-21.24h-227Z" transform="translate(0 0)"/><path class="cls-1" d="M203.7,146.3H76.29a4.41,4.41,0,0,1,0-8.82H203.7a4.41,4.41,0,0,1,0,8.82Z" transform="translate(0 0)"/><path class="cls-1" d="M203.7,240.3H76.29a4.41,4.41,0,0,1,0-8.82H203.7a4.41,4.41,0,0,1,0,8.82Z" transform="translate(0 0)"/><path class="cls-1" d="M255.43,193.33H24.55a4.41,4.41,0,1,1,0-8.82H255.43a4.41,4.41,0,0,1,0,8.82Z" transform="translate(0 0)"/><polygon class="cls-2" points="393.53 180.69 370.53 229.69 459.01 220.73 440.54 173.69 393.53 180.69"/><polygon class="cls-2" points="414.1 462.32 405.71 462.25 402 429.14 414.38 429.24 414.1 462.32"/><path class="cls-5" d="M387.23,475.66a3.76,3.76,0,0,0,3.72,3.78l16.68.14,2.92-5.92,1.07,5.95,6.29.06-1.59-21.22-2.19-.14-8.93-.62-2.88-.19-.05,6-13.4,9.09A3.77,3.77,0,0,0,387.23,475.66Z" transform="translate(0 0)"/><polygon class="cls-2" points="321.27 462.36 313.27 459.82 319.45 427.08 331.25 430.82 321.27 462.36"/><path class="cls-5" d="M291.66,467.21a3.76,3.76,0,0,0,2.45,4.71l15.9,5,4.53-4.8-.73,6,6,1.9,4.72-20.75-2-.78-8.36-3.21-2.7-1L309.61,460l-15.47,4.75A3.75,3.75,0,0,0,291.66,467.21Z" transform="translate(0 0)"/><path class="cls-5" d="M455,207l-80.45,14.74s-12.9,9.65-9.45,13.11,4,2.92,1.72,5.18-7.17,5.3-7.22,7.29-36.05,91-36.05,91,4-2,1,1-3,5.48-3,5.48l-14,94.52,22.74,1.34,22.26-86.17,49.66-80.51s4.93,71.79,5.13,76.57,3.21-1.23.21,4.77-5,2-3,6-7.2,85.44-7.2,85.44h20.75L462.59,277.9S478.43,229.64,455,207Z" transform="translate(0 0)"/><path class="cls-3" d="M431.28,71.93l-32.23-3.34-8.34,10.84L381,84.61a24.26,24.26,0,0,0-12.82,23l11.37,66.12s-9.6,21.62-3,27-5.1,18.7,9,12,75,1,75,1l-13-37,9.71-36.36,1.07-30.49A25.82,25.82,0,0,0,440,84.22l-1.36-.41Z" transform="translate(0 0)"/><path class="cls-5" d="M475.64,47.23c.22,9.08-3.18,17.88-8.06,25.6-1.44-4.51-4.05-8.61-6.77-12.52A39,39,0,0,1,456.66,85l-.44.29c-4,2.39-9,3.36-13.31,1.63,8.88-9.58,10-25.44,2.56-36.19-2.11-3-4.83-5.74-6.14-9.21-2.06-5.53-.08-11.63,1.17-17.4,1.17-5.37,1.37-11.76-2.23-15.69a3.8,3.8,0,0,1,3.47-1.6c2.22.31,3.84,2.24,4.87,4.23s1.71,4.19,3.14,5.91c2.66,3.22,7.19,4,11,5.67C470,26.76,475.42,37.12,475.64,47.23Z" transform="translate(0 0)"/><path class="cls-6" d="M237.65,479.66a1.19,1.19,0,0,0,1.18,1.19h253.3a1.19,1.19,0,1,0,0-2.38H238.84a1.19,1.19,0,0,0-1.19,1.18Z" transform="translate(0 0)"/><circle class="cls-3" cx="477.64" cy="248.75" r="9"/><path class="cls-5" d="M397.89,42c.52-1.85-3.11,9.44-1.36,9.65,8,.91,19,5.69,24.54,7.92l.75-.1c.6-.06,1.18-.16,1.76-.27,13-2.45,17.95-22.37,17.95-22.55,0-.9-2.15-25.5-5.53-25.86a24.07,24.07,0,0,0-2.68-.15h-8.4a39.27,39.27,0,0,0-5.28-.76h0c-16.92-1.29-30.26,9-29,21.57l0,0c.36.54.68,1,1,1.54s.5.89.7,1.31c1.54,3.2-2.42,7.23.21,8,3.49,1-9.2,33.9,4.64,33.9C390.43,78.17,396.43,47.13,397.89,42Z" transform="translate(0 0)"/><circle class="cls-2" cx="412.99" cy="41.44" r="19.89"/><path class="cls-5" d="M390.62,32.57c.33.18.66.34,1,.5s.69.33,1,.48c6.66,3,12.08,3.36,15.37-1A18.42,18.42,0,0,1,409.53,26a10.63,10.63,0,0,0,1.76,6.62h6.63c6.82,4.53,10.32,5,5.59,19.87-1.32,4.14-6.57,28.25-4.51,31.83.6-.07,7-26.47,7.53-26.58,13-2.46,21.21-23.82,20.16-25a22.39,22.39,0,0,0-2.31-9.91,22.88,22.88,0,0,0-8.66-9.42,40.09,40.09,0,0,0-6.92-2.6l-.17-.05c-.73-.19-1.48-.37-2.22-.53a40.77,40.77,0,0,0-4.67-.7l-.32,0a3.48,3.48,0,0,0-1.78.49h0a3.21,3.21,0,0,0-1,.88,3.34,3.34,0,0,0-.72,2.1h-7.38l-.82,0a19.78,19.78,0,0,0-19.07,18.6C390.63,31.88,390.62,32.22,390.62,32.57Z" transform="translate(0 0)"/><circle class="cls-5" cx="434.12" cy="13.11" r="13.11"/><path class="cls-2" d="M477.74,252.46a8.24,8.24,0,0,0-2.55-11.38,8.16,8.16,0,0,0-1.17-.62l.07-41.1-11.37-2.81.28,48.82a8.24,8.24,0,0,0,14.74,7.09Z" transform="translate(0 0)"/><path class="cls-3" d="M421.46,101.48l17.69-12a7.16,7.16,0,0,1,9.94,1.89c.13.19.25.39.36.59l30.4,55.56.12,81.31-19-1.19-7.79-67.13Z" transform="translate(0 0)"/><path class="cls-4" d="M285.65,285.88h-189a15.5,15.5,0,1,0,0,31h189a15.5,15.5,0,0,0,0-31Z" transform="translate(0 0)"/><path class="cls-7" d="M285.65,317.88h-189a16.5,16.5,0,1,1,0-33h189a16.5,16.5,0,0,1,0,33Zm-189-31a14.5,14.5,0,1,0,0,29h189a14.5,14.5,0,0,0,0-29Z" transform="translate(0 0)"/><path class="cls-8" d="M296.79,353.52H213.38a4.41,4.41,0,0,1,0-8.82h83.41a4.41,4.41,0,0,1,0,8.82Z" transform="translate(0 0)"/></svg>