<svg id="Layer_1" data-name="Layer 1" xmlns="http://www.w3.org/2000/svg" xmlns:xlink="http://www.w3.org/1999/xlink" viewBox="0 0 274.11 626"><defs><style>.cls-1{fill:#fdadb0;}.cls-2{fill:#2f2e43;}.cls-3{fill:#e0e1e2;}.cls-4{fill:#3f3d58;}.cls-5{fill:#2c2c2c;}.cls-6{fill:url(#Flamber);}.cls-7{fill:#fff;}</style><linearGradient id="Flamber" x1="103.62" y1="229.28" x2="274.11" y2="229.28" gradientUnits="userSpaceOnUse"><stop offset="0" stop-color="#ff5e3b"/><stop offset="1" stop-color="#db0000"/></linearGradient></defs><path id="uuid-5ef434d5-ec3b-4be2-96d4-c13c471d6de8-237" class="cls-1" d="M376.76,311.7c2.62,10.5-.88,20.35-7.83,22s-14.69-5.51-17.31-16a26,26,0,0,1-.14-12.78L341,260.27l21.86-4.46,8.05,44.47a26.37,26.37,0,0,1,5.89,11.42Z" transform="translate(-170.43 0)"/><polygon class="cls-1" points="114.67 566.9 116.02 596.15 114.67 604.24 119.39 613.69 156.49 617.73 158.51 600.2 138.95 590.08 138.38 573.55 114.67 566.9"/><path class="cls-2" d="M324.22,611l-2,2.7-38.85-11.2s1.75,17.27,1.75,20.64,64.08,3.37,73.73,2S365.36,615,365.36,615l-40-18.93L324.22,611Z" transform="translate(-170.43 0)"/><polygon class="cls-1" points="18.01 545.37 9.93 573.51 6.06 580.75 7.51 591.2 41.36 606.91 48.89 590.94 33.6 575.1 43.19 550.22 18.01 545.37"/><path class="cls-2" d="M211.39,599.66l-2.78,1.91-33.22-23s-3.87,16.91-4.95,20.11,59.63,23.7,69.2,25.51,9.44-7.49,9.44-7.49l-31.83-30.73-5.86,13.73Z" transform="translate(-170.43 0)"/><polygon class="cls-1" points="117.28 83.97 118.7 106.97 75.74 109.15 89.04 78.84 117.28 83.97"/><path class="cls-3" d="M290.22,103.53c-11.51,5.14-29.93,3.73-50.8,0l-3.26,144.6s65.29,13.12,87.73-11.1L312.08,118.89l-21.86-15.36Z" transform="translate(-170.43 0)"/><polygon class="cls-2" points="146.38 240.58 54.21 249.69 8.72 558.54 43.58 558.54 103.25 346.91 107.98 586.74 139.88 586.74 167.05 293.15 146.38 240.58"/><path class="cls-4" d="M252.52,94.67l-31,18.33a29.79,29.79,0,0,0-13.43,34l23.93,81.74s-39,67-26.31,72.87c28.46,13.27,70.93,10,70.93,10l-9.5-160.31L252.52,94.67Z" transform="translate(-170.43 0)"/><path class="cls-4" d="M288.88,102.92l35,13.61,8.27,101,23.16,81.38c-39.22,14.32-35.56,7.64-35.56,7.64l-6.5-140.41-24.38-63.23Z" transform="translate(-170.43 0)"/><path class="cls-4" d="M340,297.2l-.12-.56L304.12,131.09a14.23,14.23,0,0,1,27.74-6.37l39.32,161.61L340,297.2Z" transform="translate(-170.43 0)"/><circle class="cls-1" cx="98.64" cy="55.23" r="34.85"/><path class="cls-5" d="M285.65,10.07c7.68,2.7,12.07,4.25,16.09,8.12,6.8,6.55,7.92,15.3,9,23.43.82,6.36,1.87,14.58-1.85,24-1.27,3.21-7.44,17.49-19.24,19.3-2.32.35-7.76.45-6.19-.71,14.52-10.72,20.71-17.19,20.2-33.7-.31-10.27-16-21.35-25.3-23.34a15.86,15.86,0,0,0-12.89,3c-7.83,6.43-7.49,33-15.75,38.55-3.39,2.28-1.13-13.79-3.52-11.19-4.72,5.15-1.69,13-.84,16,4,14.24,11.6,15.63,15.53,27.78,4.24,13.12-1.1,25.47-2.36,28.4-2.21,5.1-6,13.84-14.62,18-11,5.32-19.59-1.61-24.69,4.33-2.85,3.33-1.31,6.85-6.45,17.19-1.68,3.37-2.52,5.06-3.26,5-3.52-.29-9.21-28.44,0-54.66,3.86-11,7.65-21.79,17.8-30.22,5.37-4.45,9.87-6.06,11.15-11.26,1.83-7.44-5.77-10.61-7.29-22.34-1-8-1.78-19.5,1.06-26.86,2.67-6.94,5-13,11.07-18.44C244.72,9.18,256.51.25,269,0c5.75-.11,10,7.73,16.65,10.07Z" transform="translate(-170.43 0)"/><circle class="cls-6" cx="188.87" cy="229.28" r="85.24"/><path class="cls-7" d="M337.73,284.89q7.75-28,15.52-56c1.1-4,1.95-8.38,4.47-11.76,1.95-2.6,5-4.31,8.27-3.24,7.73,2.56,7.61,13.72,7.47,20.24A73,73,0,0,1,367,262.72a2.58,2.58,0,0,0,.89,3.42,2.53,2.53,0,0,0,3.43-.89,79.23,79.23,0,0,0,7.08-28.4c.49-8.5.53-19.7-6.83-25.48a11.76,11.76,0,0,0-12.41-1.72c-4.17,1.93-6.72,5.94-8.32,10.08-1.78,4.6-2.84,9.54-4.15,14.3l-4.25,15.31q-4.74,17.11-9.49,34.22c-.86,3.11,4,4.44,4.83,1.33Z" transform="translate(-170.43 0)"/><path class="cls-7" d="M359.9,258.9A144.47,144.47,0,0,0,364.75,222c0-3.22-5-3.22-5,0a138.59,138.59,0,0,1-4.68,35.56c-.82,3.11,4,4.44,4.83,1.33Z" transform="translate(-170.43 0)"/><path class="cls-7" d="M308.49,258.75c3.35-16.15,7-32.36,11.63-48.2,3.77-12.85,10.28-27.4,24-32.06,6.82-2.31,14.2-1.94,21.18-.59a84.72,84.72,0,0,1,20.3,6.34,40.26,40.26,0,0,1,15.59,12.26,45.8,45.8,0,0,1,7.68,18.11c3.06,15.07-.54,30.47-4.57,45-.53,1.93-1.08,3.86-1.63,5.79-.88,3.1,3.94,4.42,4.82,1.33,4.46-15.66,9.08-32,7-48.46a55,55,0,0,0-6.45-20.35,42.82,42.82,0,0,0-15.19-15.47c-6.36-3.84-13.51-6.28-20.67-8.12-7.61-2-15.52-3.15-23.36-2.06a33.57,33.57,0,0,0-19.27,9.82c-5.36,5.42-9,12.19-11.66,19.26-2.95,7.8-4.87,16-6.9,24.08q-3.21,12.81-6,25.71-.67,3.15-1.33,6.28a2.58,2.58,0,0,0,1.75,3.08,2.52,2.52,0,0,0,3.07-1.75Z" transform="translate(-170.43 0)"/><path class="cls-7" d="M334.26,207.07c3.9-11.83,16.46-19.16,28.61-18.35,13.48.9,25.16,10.74,29.89,23.13a46,46,0,0,1,2.45,23.24,2.58,2.58,0,0,0,1.75,3.07,2.52,2.52,0,0,0,3.08-1.74c2.36-15.56-2-32.52-14.23-43A39.59,39.59,0,0,0,365.5,184a33.93,33.93,0,0,0-20.95,3.88,32.11,32.11,0,0,0-15.11,17.86c-1,3.06,3.82,4.37,4.82,1.33Z" transform="translate(-170.43 0)"/><path class="cls-7" d="M323.62,230a115.71,115.71,0,0,1-9.53,37.27,2.58,2.58,0,0,0,.89,3.42,2.54,2.54,0,0,0,3.43-.9A123,123,0,0,0,328.62,230a2.51,2.51,0,0,0-2.5-2.5,2.56,2.56,0,0,0-2.5,2.5Z" transform="translate(-170.43 0)"/><path class="cls-7" d="M384,244.31a115.79,115.79,0,0,1-9.54,37.28,2.59,2.59,0,0,0,.9,3.42,2.52,2.52,0,0,0,3.42-.9A123.06,123.06,0,0,0,389,244.31a2.5,2.5,0,1,0-5,0Z" transform="translate(-170.43 0)"/><path class="cls-7" d="M336.21,234.36A117.34,117.34,0,0,1,352,198.55c1.78-2.7-2.55-5.2-4.31-2.52a121.48,121.48,0,0,0-16.28,37c-.78,3.12,4,4.45,4.83,1.32Z" transform="translate(-170.43 0)"/><path id="uuid-ed8d5917-2465-4251-8a73-24d647765b28-238" class="cls-1" d="M287.34,211.9c10.77-1.14,20,3.71,20.71,10.81s-7.52,13.79-18.28,14.92A26.13,26.13,0,0,1,277.09,236l-45.66,4.2-1.37-22.27,45.15-1.78a26.5,26.5,0,0,1,12.13-4.24Z" transform="translate(-170.43 0)"/><path class="cls-4" d="M231.71,114.05h0A21.22,21.22,0,0,0,208,130.69c-8,38.1-22.39,119.28.2,120.63,29.53,1.78,57.89-5.31,57.89-5.31L259,205.25l-23-2.37L249.5,139.5a21.22,21.22,0,0,0-17.79-25.45Z" transform="translate(-170.43 0)"/></svg>