<svg id="Layer_1" data-name="Layer 1" xmlns="http://www.w3.org/2000/svg" xmlns:xlink="http://www.w3.org/1999/xlink" viewBox="0 0 629.06 199.62"><defs><style>.cls-1{fill:url(#linear-gradient);}.cls-2{fill:url(#linear-gradient-2);}.cls-3{fill:#fff;}</style><linearGradient id="linear-gradient" x1="696.53" y1="608.41" x2="696.53" y2="408.79" gradientUnits="userSpaceOnUse"><stop offset="0" stop-color="#ff5e3b"/><stop offset="0.19" stop-color="#f23d26"/><stop offset="0.38" stop-color="#e82215"/><stop offset="0.58" stop-color="#e10f09"/><stop offset="0.78" stop-color="#dc0402"/><stop offset="1" stop-color="#db0000"/></linearGradient><linearGradient id="linear-gradient-2" x1="746.83" y1="588.13" x2="746.83" y2="462.64" xlink:href="#linear-gradient"/></defs><path class="cls-1" d="M742.28,601.79c-9.77,8.78-43.53,11-68.22-7.07C648.41,576,646,542.78,657,516c-.26,5,.22,9.53,2.42,13.69a10.41,10.41,0,0,0,1.08,1.94c1.94,2.28,4,5.14,7.3,4.2s3.44-4.38,3.51-7.47c.09-3.95-1-7.65-2-11.39-3.47-13.48-3.29-26.58,4-39a39.39,39.39,0,0,1,7.15-8.75c-2.78,10.23-2.43,19.3,3,28.58,2.61-9.3,8.18-16,13.84-22.51,8.24-9.54,10.37-20.87,10.62-33,.24-11,2.25-21.72,8.21-31.31a4.84,4.84,0,0,1,2.33-2.27c-.61,4.53-1.33,8.81-1,13.21a85.3,85.3,0,0,0,4.29,20.74c5.76,16.91,2.19,32.33-6.84,47-4.7,7.63-10.55,14.54-14.19,22.83-6.63,15.09-10.2,30.63-7.07,47.19,3.81,20.13,16.36,32.3,35.19,38.75A63.45,63.45,0,0,0,742.28,601.79Z" transform="translate(-650.79 -408.79)"/><path class="cls-2" d="M732.08,462.64c9.07,14,11.82,30.08,9.09,51.3,4.88-4,8.08-16.4,6.89-26.7,7.94,7.41,11.1,27.72,8,49.74,4.11-6.53,7.93-13.29,13.29-18.9s11.71-10.31,19.86-11.66c-4.92,3.68-9.61,7.52-13.08,12.68-7,10.44-9.28,22.08-9,34.41.08,4.73.52,9.44-.3,14.19-1.82,10.57-7.91,17.09-18.37,19.5-14.66,3.37-25.72-2.67-34.09-13.94-12.47-16.77-12.24-35-3.77-53.28,4.9-10.59,11.47-20.36,15.68-31.33C729.33,480.49,732,472.26,732.08,462.64Z" transform="translate(-650.79 -408.79)"/><path class="cls-3" d="M996.85,505.84c1.7.27,2.63-.92,3.72-1.66,6-4,12.65-5.78,19.75-6.15a15.16,15.16,0,0,1,14,7.08c1.71,2.53,3,2.45,5.38.62,5.54-4.34,11.46-7.8,19-7.61,9.7.25,16.29,5.44,17.14,15.22a232.52,232.52,0,0,1,.68,35.9c-.29,4.23-.42,8.48-.51,12.72-.06,2.91-1.28,4.37-4.33,4.26a70.75,70.75,0,0,0-8.24.11c-3.46.27-4.73-1.62-5-4.61a29.12,29.12,0,0,1-.06-3.37c.23-13.36-.27-26.71-.71-40.07a22.57,22.57,0,0,0-.56-4.8c-1.49-5.78-5.75-7.66-11.17-5.08-5.71,2.71-9.14,6.34-8.68,13.55.81,12.7-.28,25.46.58,38.2.32,4.87-1.52,6.64-6.33,6.66-2.62,0-5.24-.15-7.85-.23-3.72-.11-5.42-2.21-5.41-5.74,0-12.62,0-25.23.22-37.85a32.16,32.16,0,0,0-1.39-9.94,8.17,8.17,0,0,0-9.71-5.55,22.76,22.76,0,0,0-6,2.13c-3.71,1.88-5.41,4.56-5.31,9,.29,13.36.23,26.73.25,40.09,0,6-.94,6.87-7,6.89-1.75,0-3.5,0-5.25,0-4.29,0-7-2.32-6.66-6.67,1.45-18,0-36,1.09-53.9.34-5.9,1.47-6.79,7.4-6.8h3c6.35,0,6.34,0,7.48,6.36A6.45,6.45,0,0,0,996.85,505.84Z" transform="translate(-650.79 -408.79)"/><path class="cls-3" d="M1110.22,502.2c1.66.47,2.61-.58,3.66-1.13,7.16-3.77,14.72-3.73,22.23-1.85a16.12,16.12,0,0,1,11.81,11c3.42,9.94,5.43,20.05,3.22,30.48-3.14,14.77-13.57,23.64-28.49,25.69-10.75,1.47-21.39-.54-32.08,0-2.4.13-2.9-1.58-2.81-3.51,1.28-28.57,2.12-57.14,1.92-85.73,0-5.87,1.21-6.85,7.12-6.85,2.24,0,4.49,0,6.74,0,4.65,0,5.79,1.08,5.86,5.72.12,7.49.1,15,.16,22.48C1109.57,499.7,1109.32,501,1110.22,502.2Zm-2.56,31.59c0,5.61-.05,11.23,0,16.84,0,4.21,2.43,7.57,5.91,8.57,6.62,1.9,12.26-.58,15.21-6.82,4.51-9.56,4-19.58,2.5-29.65a23.27,23.27,0,0,0-4-10.37,12.05,12.05,0,0,0-13-4.4c-4.23,1.34-6.54,4.77-6.63,10.12S1107.66,528.55,1107.66,533.79Z" transform="translate(-650.79 -408.79)"/><path class="cls-3" d="M837.35,542c0,5.75,0,11.49,0,17.23,0,5.19-2.42,7.39-7.58,7.19-2.87-.11-5.75-.07-8.62,0s-4.53-1.42-4.44-4.31c.33-10,.66-19.94,1.2-29.9a218,218,0,0,0,0-23.57c-.59-10.73-.69-21.46-.46-32.2.05-2.46,1.38-3.88,3.63-4.64a25.73,25.73,0,0,1,8.47-1.24c15.09.11,30.19.3,45.29.48,1.33,0,3.18-.2,3.28,1.56.1,1.93-1.85,2.2-3.3,2.23-6.62.15-13.24.12-19.86.24-4.61.08-9.22.35-13.83.42-2.31,0-3.73,1-3.53,3.31.91,10.09.22,20.21.57,30.3.11,3.1,2.09,3.53,4.58,3.58,6.36.12,12.72.37,19.09.45,1.92,0,3.21.54,3.27,2.63s-1.4,2.59-3.23,2.59c-6.12,0-12.24.08-18.35.14-4.83,0-5.74.73-5.89,5.59-.19,6-.05,12-.05,18Z" transform="translate(-650.79 -408.79)"/><path class="cls-3" d="M967,526.81q-1,15.13-.91,30.29c0,3.16-.64,6.72-4.11,7.71-3.92,1.12-8.45,1.69-11.51-1.93-2.32-2.76-4.21-2.63-7-1-6.52,4-13.6,5.64-21.12,3.74-6.63-1.68-10.3-7.25-9.72-14,.91-10.56,8.06-18.19,19.49-20.7a40.43,40.43,0,0,1,10.39-1.19c2.52.11,3.7-1,3.91-3.39.5-5.65.36-11.27-1.88-16.54-2.31-5.46-10.6-7.06-16.72-3.41a18.27,18.27,0,0,0-7,7.61c-.66,1.3-1.52,3.1-3.28,2.3-2-.92-1-2.74-.41-4.24a14.31,14.31,0,0,1,4.51-6.35c12.11-8.55,28-12.27,40.13,1.06,3.9,4.3,5,9.34,5.19,14.8C967,523.31,967,525.06,967,526.81Zm-19.78,19.91c-.33-10.49-3.34-12.61-13.58-9.54l-.35.13c-4.23,1.36-6.52,4.74-5.88,8.68.83,5.1,4.13,8.2,8.71,8a35.83,35.83,0,0,0,5.93-.71C946.66,552.33,947.32,551.41,947.17,546.72Z" transform="translate(-650.79 -408.79)"/><path class="cls-3" d="M1199.91,530.87c-6.49.25-13,.16-19.45.82-2.59.26-3.58,1.51-2.94,4,2.57,9.95,9.62,19.47,20.76,21.13,4,.6,7.59-.81,11.32-1.76,1.68-.43,3.91-1.74,4.86.79.81,2.19-1.13,3.33-2.78,4.27-5,2.83-9.91,5.83-15.82,6.37-22.1,2-43.26-11.84-37.59-39.93,3.47-17.18,14.67-24.54,30.62-27.81,9.42-1.93,16.53,1.34,23.07,7.32,2.31,2.11,3.14,5,3.8,8,.86,3.89,2.16,7.69,2.22,11.72,0,3.32-1.51,5.13-5,5.11C1208.65,530.85,1204.28,530.87,1199.91,530.87Zm-10.81-4.22H1197c2.37,0,3.79-1.14,4-3.56s.33-5,.33-7.47c0-10-5.11-13.32-14.33-9.34a12.21,12.21,0,0,0-3.52,2.73c-4.15,4-5,9.36-5.87,14.63-.36,2,1.08,3,3,3C1183.36,526.7,1186.23,526.65,1189.1,526.65Z" transform="translate(-650.79 -408.79)"/><path class="cls-3" d="M902.84,510.19c0,10.61-.22,21.23.09,31.84.18,6.22,1.21,12.42.43,18.66-.62,5-1.2,5.62-6.18,6.09-1.24.11-2.5.05-3.75.05-9.84,0-10.28,0-9.84-10,1.13-25.85.39-51.71.69-77.56.08-7.1,1.63-8.48,8.8-8.21,10.21.38,10-1.65,10,10.3v28.87Z" transform="translate(-650.79 -408.79)"/><path class="cls-3" d="M1246.8,505.33a2.5,2.5,0,0,0,2.33-.65c7.14-5.34,15.33-6.91,24-6.7,2.91.08,5.77.77,6.55,3.87s-1.31,5.14-3.8,6.63a10.37,10.37,0,0,1-10.35.56c-5.82-2.76-11.3-2.22-16.45,1.85-2.62,2.06-3.38,4.53-3.36,7.81.13,14.48,0,29,0,43.44,0,3.24-1.38,4.48-4.56,4.28-2.86-.17-5.74,0-8.62,0-4.6,0-5.36-.76-5.5-5.43-.21-6.49.53-13,.72-19.43.35-12.22.17-24.46,1-36.67.34-4.94,1.15-5.87,6-6,.75,0,1.5,0,2.25,0C1244.26,498.85,1244.26,498.85,1246.8,505.33Z" transform="translate(-650.79 -408.79)"/></svg>