<svg width="11" height="19" viewBox="0 0 11 19" fill="none" xmlns="http://www.w3.org/2000/svg">
<path d="M5.02 18.68V16.74H6.69V18.68H5.02ZM5.06 2.72V0.799999H6.72V2.72H5.06ZM5.87 16.99C4.89667 16.99 4.04333 16.8267 3.31 16.5C2.57667 16.1733 2.00333 15.6867 1.59 15.04C1.17667 14.3867 0.96 13.5733 0.94 12.6H2.73C2.74333 13.22 2.89 13.7333 3.17 14.14C3.45 14.5467 3.83 14.85 4.31 15.05C4.79 15.2433 5.33667 15.34 5.95 15.34C6.57667 15.34 7.1 15.2467 7.52 15.06C7.94 14.8667 8.25667 14.61 8.47 14.29C8.68333 13.9633 8.79 13.6 8.79 13.2C8.79 12.7467 8.66333 12.3667 8.41 12.06C8.15667 11.7533 7.78 11.48 7.28 11.24C6.78667 11 6.17 10.75 5.43 10.49C4.63667 10.2033 3.93667 9.87333 3.33 9.5C2.73 9.12667 2.26 8.67333 1.92 8.14C1.58667 7.60667 1.42 6.96667 1.42 6.22C1.42 5.40667 1.6 4.72 1.96 4.16C2.32667 3.59333 2.84333 3.16333 3.51 2.87C4.18333 2.57667 4.97333 2.43 5.88 2.43C6.80667 2.43 7.57 2.57667 8.17 2.87C8.77667 3.16333 9.24667 3.6 9.58 4.18C9.91333 4.75333 10.1333 5.46667 10.24 6.32H8.43C8.37 5.87333 8.24667 5.48333 8.06 5.15C7.87333 4.81667 7.59667 4.55667 7.23 4.37C6.86333 4.17667 6.38333 4.08 5.79 4.08C4.97667 4.08 4.34333 4.25333 3.89 4.6C3.44333 4.94667 3.22 5.46667 3.22 6.16C3.22 6.56667 3.30333 6.92333 3.47 7.23C3.63667 7.53667 3.93667 7.82667 4.37 8.1C4.80333 8.36667 5.42 8.66 6.22 8.98C6.82667 9.22 7.39333 9.45333 7.92 9.68C8.45333 9.9 8.92 10.1533 9.32 10.44C9.72 10.72 10.0333 11.0733 10.26 11.5C10.4933 11.92 10.6133 12.45 10.62 13.09C10.6267 13.91 10.4433 14.61 10.07 15.19C9.69667 15.77 9.15333 16.2167 8.44 16.53C7.73333 16.8367 6.87667 16.99 5.87 16.99Z" fill="url(#paint0_linear_1_2)"/>
<defs>
<linearGradient id="paint0_linear_1_2" x1="6" y1="-2" x2="6" y2="22" gradientUnits="userSpaceOnUse">
<stop stop-color="#FF5E3B"/>
<stop offset="1" stop-color="#DB0000"/>
</linearGradient>
</defs>
</svg>
