<svg width="23" height="22" viewBox="0 0 23 22" fill="none" xmlns="http://www.w3.org/2000/svg">
<path d="M21.813 13.1784C21.7023 13.0674 21.5635 12.9887 21.4115 12.9507C21.2595 12.9127 21.1 12.9168 20.9501 12.9626C19.3048 13.4601 17.5553 13.5018 15.8881 13.0833C14.221 12.6648 12.6986 11.8017 11.4831 10.586C10.2677 9.3703 9.40478 7.84758 8.98634 6.18006C8.5679 4.51255 8.6096 2.76272 9.10701 1.11705C9.15318 0.967092 9.1576 0.807386 9.1198 0.655106C9.082 0.502826 9.00341 0.363733 8.89249 0.252786C8.78157 0.141838 8.6425 0.0632348 8.49025 0.0254286C8.338 -0.0123776 8.17833 -0.00795615 8.02841 0.0382174C5.75366 0.73519 3.75663 2.132 2.3215 4.02989C1.06645 5.69652 0.300898 7.68018 0.110859 9.75801C-0.0791806 11.8358 0.31382 13.9255 1.24571 15.7922C2.1776 17.659 3.61145 19.2288 5.38618 20.3254C7.16091 21.422 9.2062 22.0019 11.2923 21.9999C13.726 22.0074 16.0949 21.2161 18.0357 19.7474C19.9332 18.3119 21.3297 16.3145 22.0266 14.0393C22.0722 13.8899 22.0764 13.7309 22.0388 13.5793C22.0012 13.4277 21.9232 13.2891 21.813 13.1784ZM16.9981 18.3686C15.1704 19.7455 12.907 20.4157 10.6246 20.2558C8.34207 20.096 6.19413 19.1168 4.57615 17.4986C2.95817 15.8805 1.97906 13.7322 1.81905 11.4492C1.65905 9.16626 2.32892 6.90233 3.70535 5.07419C4.60211 3.8897 5.76146 2.92953 7.09218 2.26924C7.01637 2.80134 6.97817 3.33813 6.97784 3.87561C6.98099 6.85033 8.16384 9.70231 10.2668 11.8058C12.3699 13.9092 15.2212 15.0923 18.1954 15.0954C18.7338 15.0953 19.2716 15.0571 19.8046 14.9811C19.1439 16.3123 18.1831 17.4719 16.9981 18.3686Z" fill="url(#paint0_linear_289_41)"/>
<defs>
<linearGradient id="paint0_linear_289_41" x1="11.0642" y1="0" x2="11.0642" y2="22" gradientUnits="userSpaceOnUse">
<stop offset="0.234375" stop-color="#FF5E3B"/>
<stop offset="0.682292" stop-color="#DB0101"/>
</linearGradient>
</defs>
</svg>
