<svg width="22" height="22" viewBox="0 0 22 22" fill="none" xmlns="http://www.w3.org/2000/svg">
<path d="M11 17.325C9.74903 17.325 8.52616 16.954 7.48602 16.259C6.44588 15.564 5.63519 14.5762 5.15646 13.4205C4.67774 12.2647 4.55248 10.993 4.79653 9.76605C5.04058 8.53912 5.64298 7.41212 6.52755 6.52755C7.41212 5.64298 8.53912 5.04058 9.76605 4.79653C10.993 4.55248 12.2647 4.67774 13.4205 5.15646C14.5762 5.63519 15.564 6.44588 16.259 7.48602C16.954 8.52616 17.325 9.74903 17.325 11C17.3221 12.6766 16.6548 14.2837 15.4692 15.4692C14.2837 16.6548 12.6766 17.3221 11 17.325ZM11 6.325C10.0754 6.325 9.17151 6.59918 8.40271 7.11288C7.63391 7.62658 7.0347 8.35671 6.68086 9.21095C6.32702 10.0652 6.23444 11.0052 6.41483 11.912C6.59521 12.8189 7.04047 13.6519 7.69428 14.3057C8.34809 14.9595 9.18109 15.4048 10.088 15.5852C10.9948 15.7656 11.9348 15.673 12.789 15.3191C13.6433 14.9653 14.3734 14.3661 14.8871 13.5973C15.4008 12.8285 15.675 11.9246 15.675 11C15.6721 9.76101 15.1786 8.57359 14.3025 7.69748C13.4264 6.82138 12.239 6.32791 11 6.325ZM11 3.3C10.7821 3.29715 10.5739 3.20932 10.4198 3.05521C10.2657 2.90111 10.1778 2.69292 10.175 2.475V0.825C10.175 0.606196 10.2619 0.396354 10.4166 0.241637C10.5714 0.0869193 10.7812 0 11 0C11.2188 0 11.4286 0.0869193 11.5834 0.241637C11.7381 0.396354 11.825 0.606196 11.825 0.825V2.475C11.8222 2.69292 11.7343 2.90111 11.5802 3.05521C11.4261 3.20932 11.2179 3.29715 11 3.3ZM11 22C10.7821 21.9972 10.5739 21.9093 10.4198 21.7552C10.2657 21.6011 10.1778 21.3929 10.175 21.175V19.525C10.175 19.3062 10.2619 19.0964 10.4166 18.9416C10.5714 18.7869 10.7812 18.7 11 18.7C11.2188 18.7 11.4286 18.7869 11.5834 18.9416C11.7381 19.0964 11.825 19.3062 11.825 19.525V21.175C11.8222 21.3929 11.7343 21.6011 11.5802 21.7552C11.4261 21.9093 11.2179 21.9972 11 22ZM21.175 11.825H19.525C19.3062 11.825 19.0964 11.7381 18.9416 11.5834C18.7869 11.4286 18.7 11.2188 18.7 11C18.7 10.7812 18.7869 10.5714 18.9416 10.4166C19.0964 10.2619 19.3062 10.175 19.525 10.175H21.175C21.3938 10.175 21.6036 10.2619 21.7584 10.4166C21.9131 10.5714 22 10.7812 22 11C22 11.2188 21.9131 11.4286 21.7584 11.5834C21.6036 11.7381 21.3938 11.825 21.175 11.825ZM2.475 11.825H0.825C0.606196 11.825 0.396354 11.7381 0.241637 11.5834C0.0869193 11.4286 0 11.2188 0 11C0 10.7812 0.0869193 10.5714 0.241637 10.4166C0.396354 10.2619 0.606196 10.175 0.825 10.175H2.475C2.6938 10.175 2.90365 10.2619 3.05836 10.4166C3.21308 10.5714 3.3 10.7812 3.3 11C3.3 11.2188 3.21308 11.4286 3.05836 11.5834C2.90365 11.7381 2.6938 11.825 2.475 11.825ZM4.95 5.775C4.73776 5.75877 4.54033 5.66005 4.4 5.5L3.201 4.4C3.12227 4.32127 3.05982 4.22781 3.01722 4.12495C2.97461 4.02208 2.95268 3.91184 2.95268 3.8005C2.95268 3.68916 2.97461 3.57892 3.01722 3.47605C3.05982 3.37319 3.12227 3.27973 3.201 3.201C3.27973 3.12227 3.37319 3.05982 3.47605 3.01722C3.57892 2.97461 3.68916 2.95268 3.8005 2.95268C3.91184 2.95268 4.02208 2.97461 4.12495 3.01722C4.22781 3.05982 4.32127 3.12227 4.4 3.201L5.5 4.4C5.63529 4.55126 5.71008 4.74707 5.71008 4.95C5.71008 5.15293 5.63529 5.34874 5.5 5.5C5.35967 5.66005 5.16224 5.75877 4.95 5.775ZM18.216 19.041C18.1076 19.0415 18.0002 19.0204 17.9001 18.9788C17.8 18.9373 17.7092 18.8761 17.633 18.799L16.5 17.6C16.4265 17.4461 16.4025 17.2731 16.4313 17.1049C16.4602 16.9368 16.5405 16.7817 16.6611 16.6611C16.7817 16.5405 16.9368 16.4602 17.1049 16.4313C17.2731 16.4025 17.4461 16.4265 17.6 16.5L18.799 17.6C18.9535 17.7547 19.0403 17.9644 19.0403 18.183C19.0403 18.4016 18.9535 18.6113 18.799 18.766C18.7257 18.8491 18.6361 18.9164 18.5359 18.9637C18.4356 19.011 18.3268 19.0373 18.216 19.041ZM17.05 5.775C16.8378 5.75877 16.6403 5.66005 16.5 5.5C16.3647 5.34874 16.2899 5.15293 16.2899 4.95C16.2899 4.74707 16.3647 4.55126 16.5 4.4L17.6 3.201C17.759 3.042 17.9746 2.95268 18.1995 2.95268C18.4244 2.95268 18.64 3.042 18.799 3.201C18.958 3.36 19.0473 3.57564 19.0473 3.8005C19.0473 4.02536 18.958 4.241 18.799 4.4L17.6 5.5C17.4597 5.66005 17.2622 5.75877 17.05 5.775ZM3.784 19.041C3.67561 19.0415 3.5682 19.0204 3.46809 18.9788C3.36797 18.9373 3.27717 18.8761 3.201 18.799C3.0465 18.6443 2.95973 18.4346 2.95973 18.216C2.95973 17.9974 3.0465 17.7877 3.201 17.633L4.4 16.5C4.55395 16.4265 4.72691 16.4025 4.89505 16.4313C5.0632 16.4602 5.21827 16.5405 5.33891 16.6611C5.45955 16.7817 5.53981 16.9368 5.56866 17.1049C5.59751 17.2731 5.57353 17.4461 5.5 17.6L4.4 18.799C4.32 18.8802 4.22382 18.9437 4.11771 18.9854C4.01159 19.0271 3.8979 19.0461 3.784 19.041Z" fill="url(#paint0_linear_5_15)"/>
<defs>
<linearGradient id="paint0_linear_5_15" x1="11" y1="0" x2="11" y2="22" gradientUnits="userSpaceOnUse">
<stop stop-color="#FF5E3B"/>
<stop offset="1" stop-color="#DB0101"/>
</linearGradient>
</defs>
</svg>
